<?xml version="1.0" encoding="utf-8"?>
<!-- Generator: Adobe Illustrator 24.1.0, SVG Export Plug-In . SVG Version: 6.00 Build 0)  -->
<svg version="1.1" id="Layer_1" xmlns="http://www.w3.org/2000/svg" xmlns:xlink="http://www.w3.org/1999/xlink" x="0px" y="0px"
	 viewBox="0 0 50 50" style="enable-background:new 0 0 50 50;" xml:space="preserve">
<style type="text/css">
	.st0{fill:#243F8A;}
</style>
<path class="st0" d="M25.07,0.65L25.07,0.65c-13.31,0-24.1,10.79-24.1,24.1v0c0,13.31,10.79,24.1,24.1,24.1h0
	c13.31,0,24.1-10.79,24.1-24.1v0C49.17,11.44,38.38,0.65,25.07,0.65z M31.79,15.29c0,0-2.27,0-3.18,0c-1.12,0-1.35,0.46-1.35,1.62
	c0,0.97,0,2.8,0,2.8h4.53l-0.44,4.92h-4.09v14.69H21.4V24.69h-3.05v-4.98h3.05c0,0,0-0.72,0-3.92c0-3.68,1.97-5.6,6.33-5.6
	c0.72,0,4.06,0,4.06,0V15.29z"/>
</svg>
