<?xml version="1.0" encoding="utf-8"?>
<!-- Generator: Adobe Illustrator 24.1.0, SVG Export Plug-In . SVG Version: 6.00 Build 0)  -->
<svg version="1.1" id="Layer_1" xmlns="http://www.w3.org/2000/svg" xmlns:xlink="http://www.w3.org/1999/xlink" x="0px" y="0px"
	 viewBox="0 0 50 50" style="enable-background:new 0 0 50 50;" xml:space="preserve">
<style type="text/css">
	.st0{fill:#243F8A;}
</style>
<g>
	<path class="st0" d="M35.37,16.96c-0.24-0.62-0.53-1.06-0.99-1.52c-0.46-0.46-0.9-0.75-1.52-0.99c-0.47-0.18-1.17-0.4-2.45-0.46
		c-1.39-0.06-1.81-0.08-5.34-0.08c-3.53,0-3.95,0.01-5.34,0.08c-1.29,0.06-1.99,0.27-2.45,0.46c-0.62,0.24-1.06,0.53-1.52,0.99
		c-0.46,0.46-0.75,0.9-0.99,1.52c-0.18,0.47-0.4,1.17-0.46,2.45c-0.06,1.39-0.08,1.81-0.08,5.34s0.01,3.95,0.08,5.34
		c0.06,1.29,0.27,1.99,0.46,2.45c0.24,0.62,0.53,1.06,0.99,1.52c0.46,0.46,0.9,0.75,1.52,0.99c0.47,0.18,1.17,0.4,2.45,0.46
		c1.39,0.06,1.81,0.08,5.34,0.08c3.53,0,3.95-0.01,5.34-0.08c1.29-0.06,1.99-0.27,2.45-0.46c0.62-0.24,1.06-0.53,1.52-0.99
		c0.46-0.46,0.75-0.9,0.99-1.52c0.18-0.47,0.4-1.17,0.46-2.45c0.06-1.39,0.08-1.81,0.08-5.34s-0.01-3.95-0.08-5.34
		C35.77,18.12,35.55,17.43,35.37,16.96z M25.07,31.54c-3.75,0-6.79-3.04-6.79-6.79c0-3.75,3.04-6.79,6.79-6.79
		c3.75,0,6.79,3.04,6.79,6.79C31.85,28.5,28.82,31.54,25.07,31.54z M32.12,19.28c-0.88,0-1.59-0.71-1.59-1.59
		c0-0.88,0.71-1.59,1.59-1.59c0.88,0,1.59,0.71,1.59,1.59C33.71,18.57,33,19.28,32.12,19.28z"/>
	<path class="st0" d="M25.07,20.35c-2.43,0-4.4,1.97-4.4,4.4c0,2.43,1.97,4.4,4.4,4.4c2.43,0,4.4-1.97,4.4-4.4
		C29.47,22.32,27.5,20.35,25.07,20.35z"/>
	<path class="st0" d="M25.07,0.65c-13.31,0-24.1,10.79-24.1,24.1v0c0,13.31,10.79,24.1,24.1,24.1c13.31,0,24.1-10.79,24.1-24.1v0
		C49.17,11.44,38.38,0.65,25.07,0.65z M38.2,30.2c-0.06,1.41-0.29,2.37-0.61,3.21c-0.34,0.87-0.79,1.61-1.52,2.34
		c-0.73,0.73-1.47,1.19-2.34,1.52c-0.84,0.33-1.8,0.55-3.21,0.61c-1.41,0.06-1.86,0.08-5.45,0.08c-3.59,0-4.04-0.02-5.45-0.08
		c-1.41-0.06-2.37-0.29-3.21-0.61c-0.87-0.34-1.61-0.79-2.34-1.52c-0.73-0.73-1.19-1.47-1.52-2.34c-0.33-0.84-0.55-1.8-0.61-3.21
		c-0.06-1.41-0.08-1.86-0.08-5.45c0-3.59,0.02-4.04,0.08-5.45c0.06-1.41,0.29-2.37,0.61-3.21c0.34-0.87,0.79-1.61,1.52-2.34
		c0.73-0.73,1.47-1.19,2.34-1.52c0.84-0.33,1.8-0.55,3.21-0.61c1.41-0.06,1.86-0.08,5.45-0.08c3.59,0,4.04,0.02,5.45,0.08
		c1.41,0.06,2.37,0.29,3.21,0.61c0.87,0.34,1.61,0.79,2.34,1.52c0.73,0.73,1.19,1.47,1.52,2.34c0.33,0.84,0.55,1.8,0.61,3.21
		c0.06,1.41,0.08,1.86,0.08,5.45C38.28,28.34,38.27,28.79,38.2,30.2z"/>
</g>
</svg>
