<?xml version="1.0" encoding="utf-8"?>
<!-- Generator: Adobe Illustrator 24.1.0, SVG Export Plug-In . SVG Version: 6.00 Build 0)  -->
<svg version="1.1" id="Layer_1" xmlns="http://www.w3.org/2000/svg" xmlns:xlink="http://www.w3.org/1999/xlink" x="0px" y="0px"
	 viewBox="0 0 50 50" style="enable-background:new 0 0 50 50;" xml:space="preserve">
<style type="text/css">
	.st0{fill:#243F8A;}
</style>
<path class="st0" d="M25.07,0.65c-13.31,0-24.1,10.79-24.1,24.1v0c0,13.31,10.79,24.1,24.1,24.1c13.31,0,24.1-10.79,24.1-24.1v0
	C49.17,11.44,38.38,0.65,25.07,0.65z M19.13,35.49h-4.99V19.38h4.99V35.49z M16.61,17.27c-1.63,0-2.95-1.33-2.95-2.97
	c0-1.64,1.32-2.97,2.95-2.97c1.63,0,2.95,1.33,2.95,2.97C19.56,15.94,18.24,17.27,16.61,17.27z M37.82,35.49h-4.96
	c0,0,0-6.14,0-8.46c0-2.32-0.88-3.61-2.72-3.61c-2,0-3.04,1.35-3.04,3.61c0,2.48,0,8.46,0,8.46h-4.78V19.38h4.78v2.17
	c0,0,1.44-2.66,4.86-2.66c3.42,0,5.86,2.09,5.86,6.4C37.82,29.61,37.82,35.49,37.82,35.49z"/>
</svg>
