<?xml version="1.0" encoding="utf-8"?>
<!-- Generator: Adobe Illustrator 24.1.0, SVG Export Plug-In . SVG Version: 6.00 Build 0)  -->
<svg version="1.1" id="Layer_1" xmlns="http://www.w3.org/2000/svg" xmlns:xlink="http://www.w3.org/1999/xlink" x="0px" y="0px"
	 viewBox="0 0 50 50" style="enable-background:new 0 0 50 50;" xml:space="preserve">
<style type="text/css">
	.st0{fill:#243F8A;}
</style>
<path class="st0" d="M25.07,0.65c-13.31,0-24.1,10.79-24.1,24.1v0c0,13.31,10.79,24.1,24.1,24.1c13.31,0,24.1-10.79,24.1-24.1v0
	C49.17,11.44,38.38,0.65,25.07,0.65z M35.28,19.51c0.33,7.41-5.19,15.67-14.98,15.67c-2.98,0-5.74-0.87-8.08-2.37
	c2.8,0.33,5.59-0.44,7.8-2.18c-2.31-0.04-4.25-1.57-4.92-3.66c0.82,0.16,1.64,0.11,2.38-0.09c-2.53-0.51-4.28-2.79-4.23-5.23
	c0.71,0.39,1.52,0.63,2.39,0.66c-2.35-1.57-3.01-4.67-1.63-7.04c2.6,3.19,6.48,5.29,10.86,5.51c-0.77-3.3,1.73-6.47,5.13-6.47
	c1.52,0,2.89,0.64,3.85,1.66c1.2-0.24,2.33-0.68,3.35-1.28c-0.39,1.23-1.23,2.26-2.32,2.91c1.06-0.13,2.08-0.41,3.03-0.83
	C37.2,17.84,36.31,18.77,35.28,19.51z"/>
</svg>
